<svg xmlns="http://www.w3.org/2000/svg" width="1275.223" height="717.041" viewBox="0 0 1275.223 717.041">
  <defs>
    <style>
      .cls-1 {
        fill: #fff;
      }
    </style>
  </defs>
  <g id="kv-mask" transform="translate(-1428.777 -1236.735)">
    <path id="パス_5819" data-name="パス 5819" class="cls-1" d="M234.36,735.486q-11.674-.167-23.379-.644c-40.473-1.675-82.55-9.19-116.769-28.1-38.224-21.121-54.161-58.912-58.588-95.979-4.518-37.83,24.242-76.84,28.455-114.695,8.548-76.836-74.07-182.659,32.063-237.336,51.2-26.377,116.829-15.2,176.646-20.6,72.742-6.569,141.333-40.372,183.361-90.362,23.8-28.309,39.728-61.692,69.821-85.465,34.177-27,82.927-38.082,129.984-38.274,28.966-.119,57.285,4.807,85.543,9.546,30.619,5.136,54.677,5.5,86.2,3.68,98.826-5.8,199.1-16.46,298.182-14.6,52.971.994,103.765,6.2,137.045,45.228,20.269,23.768,27.922,53.745,27.814,82.919-.232,62.486-24.618,124.058-28.883,186.618a566.179,566.179,0,0,0,10.608,154.037c11.96,57.41,41.138,128.124,5.127,183.407-34.148,52.423-113.881,57.4-177.378,58.671-37.543.749-75.2.166-112.618,3.326-19.595,1.655-38.653,3.133-58.387,2.449-38.116-1.322-75.717-7.2-113.692-9.843-94.716-6.589-192.387-10.844-288.459-8.9C429.017,722.558,332.512,736.889,234.36,735.486Z" transform="translate(1409.023 1214.293)"/>
    <path id="パス_8" data-name="パス 8" class="cls-1" d="M38.606,213.123a20.584,20.584,0,0,0-2.525,1.192,20.934,20.934,0,0,0-10.757,17.909c.059,7.306,4.9,14.478,11.828,16.795,10.725,3.585,21.57-2.765,30.54-7.781,8.773-4.9,17.935-5.2,27.572-3.526C83.669,222.445,58.65,205.252,38.606,213.123Z" transform="translate(1403.454 1226.365)"/>
  </g>
</svg>
