<svg id="about-illust01" xmlns="http://www.w3.org/2000/svg" width="117.907" height="140.761" viewBox="0 0 117.907 140.761">
  <defs>
    <style>
      .cls-1 {
        fill: #e75534;
      }

      .cls-2 {
        fill: #ffec00;
      }

      .cls-3 {
        fill: #0092e5;
      }

      .cls-4 {
        fill: #fff;
      }

      .cls-5 {
        fill: #1a1a1a;
      }

      .cls-6 {
        fill: none;
        stroke: #1a1a1a;
        stroke-linecap: round;
        stroke-linejoin: round;
        stroke-width: 1.595px;
      }

      .cls-7 {
        fill: #ffc400;
      }

      .cls-8 {
        fill: #fffde9;
      }
    </style>
  </defs>
  <path id="パス_77" data-name="パス 77" class="cls-1" d="M583.093,163.31c.324,5.8-2.675,11.209-5.58,16.241L570.734,191.3c-1.528,2.647-3.083,5.367-3.589,8.381a13.928,13.928,0,0,0,3.79,11.752,16.051,16.051,0,0,0,11.54,4.707,6.036,6.036,0,0,0,4.473-1.506c1.255-1.356,1.284-3.439.947-5.255a17.423,17.423,0,0,0-1.676-4.865c-1.189-2.286-2.892-4.324-3.677-6.779a14.23,14.23,0,0,1-.573-4.4c.019-4.781,1.374-9.456,2.969-13.964,1.774-5.015,3.9-10.166,3.349-15.457" transform="translate(-520.683 -121.064)"/>
  <path id="パス_78" data-name="パス 78" class="cls-2" d="M525.021,254.47a17.05,17.05,0,0,1-4.13,10.255,17.437,17.437,0,0,0-2.139,2.62,3.507,3.507,0,0,0-.313,3.237c.579,1.161,2.1,2.12,1.656,3.339a2.438,2.438,0,0,1-.863.987c-.958.759-2.269,1.546-3.307.9a3.026,3.026,0,0,1-1.019-1.452l-2.367-5.421a3.894,3.894,0,0,1-.471-2.575,4.494,4.494,0,0,1,1.6-1.921,14.534,14.534,0,0,0,4.927-10.659" transform="translate(-511.984 -135.375)"/>
  <path id="パス_79" data-name="パス 79" class="cls-2" d="M536.671,253.039a17.052,17.052,0,0,1-1.53,10.949,17.475,17.475,0,0,0-1.443,3.059,3.511,3.511,0,0,0,.479,3.217c.843.987,2.552,1.549,2.413,2.839a2.434,2.434,0,0,1-.6,1.166c-.746.969-1.828,2.049-2.992,1.674a3.022,3.022,0,0,1-1.34-1.163l-3.608-4.688a3.9,3.9,0,0,1-1.079-2.385,4.5,4.5,0,0,1,1.088-2.251,14.531,14.531,0,0,0,2.2-11.534" transform="translate(-514.355 -135.258)"/>
  <path id="パス_80" data-name="パス 80" class="cls-2" d="M547.729,212.412A17.052,17.052,0,0,1,558.58,210.3a17.487,17.487,0,0,0,3.362.37,3.51,3.51,0,0,0,2.887-1.5c.659-1.117.635-2.917,1.9-3.2a2.437,2.437,0,0,1,1.3.186c1.158.391,2.533,1.063,2.555,2.286a3.023,3.023,0,0,1-.663,1.646l-3.26,4.936a3.9,3.9,0,0,1-1.9,1.8,4.493,4.493,0,0,1-2.482-.3,14.53,14.53,0,0,0-11.625,1.666" transform="translate(-517.639 -127.806)"/>
  <path id="パス_81" data-name="パス 81" class="cls-3" d="M545.692,231.109a149.594,149.594,0,0,0-5.255-32.043c-.409-1.472-.849-2.963-1.308-4.435-.109-.348-.208-.723-.311-1.109A13.36,13.36,0,0,0,537.509,190a1.813,1.813,0,0,0-2.894-.267,4.537,4.537,0,0,0-.875,2.587c-.024.2-.043.384-.075.523-.174.753-.39,1.524-.643,2.292a32.507,32.507,0,0,1-1.832,4.394,67.45,67.45,0,0,1-5.285,8.534c-.732,1.039-1.477,2.068-2.221,3.1l-1.178,1.634c-5.459,7.6-10.394,15.917-9.549,25.17a14.041,14.041,0,0,0,2.476,7.164c2.232,3.027,6.161,4.931,11.063,5.362.715.063,1.412.093,2.091.093,8.095,0,13.7-4.276,15.779-8.821C545.932,238.335,545.871,234.467,545.692,231.109Z" transform="translate(-512.123 -125.149)"/>
  <g id="グループ_56" data-name="グループ 56" transform="translate(4.195 88.873)">
    <circle id="楕円形_42" data-name="楕円形 42" class="cls-4" cx="4.121" cy="4.121" r="4.121" transform="translate(0.819 0.533)"/>
    <path id="パス_82" data-name="パス 82" class="cls-5" d="M519.9,227.877A4.415,4.415,0,0,1,516.989,224a4.736,4.736,0,0,1,1.8-4.337,5.39,5.39,0,0,1,4.624-.735,4.448,4.448,0,0,1,3.1,6.07A5.072,5.072,0,0,1,519.9,227.877Zm.389-1.034c1.329.589,3.211.614,4.161-.462a4.769,4.769,0,0,0,1.255-2.9,3.072,3.072,0,0,0-1.136-2.757,4.424,4.424,0,0,0-5.255-.056,3.7,3.7,0,0,0,.195,5.711A3.556,3.556,0,0,0,520.294,226.843Z" transform="translate(-516.967 -218.699)"/>
    <path id="パス_83" data-name="パス 83" class="cls-5" d="M523.178,222.317a1.565,1.565,0,0,1,.977,2.03,2.247,2.247,0,0,1-2.168,1.317,1.976,1.976,0,0,1-1.194-2.405A1.914,1.914,0,0,1,523.178,222.317Z" transform="translate(-517.558 -219.254)"/>
  </g>
  <g id="グループ_57" data-name="グループ 57" transform="translate(28.998 92.802)">
    <circle id="楕円形_43" data-name="楕円形 43" class="cls-4" cx="4.121" cy="4.121" r="4.121" transform="translate(0.819 0.533)"/>
    <path id="パス_84" data-name="パス 84" class="cls-5" d="M549.369,232.543a4.413,4.413,0,0,1-2.916-3.88,4.734,4.734,0,0,1,1.8-4.337,5.388,5.388,0,0,1,4.623-.735,4.936,4.936,0,0,1,2.929,2.24,4.884,4.884,0,0,1,.171,3.829A5.069,5.069,0,0,1,549.369,232.543Zm.388-1.033c1.329.589,3.212.614,4.162-.462a4.767,4.767,0,0,0,1.254-2.9,3.07,3.07,0,0,0-1.136-2.757,4.424,4.424,0,0,0-5.255-.056,3.7,3.7,0,0,0,.195,5.711A3.573,3.573,0,0,0,549.757,231.51Z" transform="translate(-546.431 -223.366)"/>
    <path id="パス_85" data-name="パス 85" class="cls-5" d="M552.641,226.984a1.567,1.567,0,0,1,.977,2.03,2.248,2.248,0,0,1-2.169,1.317,1.977,1.977,0,0,1-1.194-2.405A1.914,1.914,0,0,1,552.641,226.984Z" transform="translate(-547.022 -223.921)"/>
  </g>
  <path id="パス_86" data-name="パス 86" class="cls-6" d="M533.481,232.455a7.411,7.411,0,0,0,.1,3.2,3.061,3.061,0,0,0,2.5,2.1,3.57,3.57,0,0,0,3.095-1.453,6.066,6.066,0,0,0,1.019-3.037" transform="translate(-515.365 -132.002)"/>
  <path id="パス_87" data-name="パス 87" class="cls-7" d="M632.425,157.576a47.006,47.006,0,0,0-8.433-22.606,84.28,84.28,0,0,0-7.236-8.637c-1.338-1.44-3.526-2.365-5.23-3.306q-2.932-1.619-5.98-3.015a72.466,72.466,0,0,0-29.392-6.885,54.391,54.391,0,0,0-42.245,19.153,31.679,31.679,0,0,0-4.433,6.487c-1.788,3.589-.87,8.919,1.59,12.005,2.409,3.021,6.218,4.546,9.945,5.564,16.89,4.616,35.016,1.36,52.2,4.71,11.335,2.209,22.66,7.29,33.98,5.008a7.479,7.479,0,0,0,3.363-1.365C632.523,163.058,632.659,160.12,632.425,157.576Z" transform="translate(-514.603 -113.125)"/>
  <path id="パス_88" data-name="パス 88" class="cls-8" d="M563.358,120.86a4.935,4.935,0,0,1,3.635-.492c1.958.593,3.035,2.637,3.9,4.491a3.749,3.749,0,0,1,.508,1.961,3.164,3.164,0,0,1-.6,1.376,10.361,10.361,0,0,1-3.646,3.286,4.882,4.882,0,0,1-2.937.7c-1.929-.273-3.146-2.176-3.978-3.936a6.827,6.827,0,0,1-.823-2.778C559.391,123.373,561.706,121.714,563.358,120.86Z" transform="translate(-519.487 -114.245)"/>
  <path id="パス_89" data-name="パス 89" class="cls-8" d="M563.358,147.924a4.935,4.935,0,0,1,3.635-.493c1.958.593,3.035,2.637,3.9,4.492a3.747,3.747,0,0,1,.508,1.961,3.161,3.161,0,0,1-.6,1.376,10.363,10.363,0,0,1-3.646,3.286,4.888,4.888,0,0,1-2.937.7c-1.929-.274-3.146-2.176-3.978-3.936a6.827,6.827,0,0,1-.823-2.779C559.391,150.437,561.706,148.778,563.358,147.924Z" transform="translate(-519.487 -118.526)"/>
  <path id="パス_90" data-name="パス 90" class="cls-8" d="M621.124,130.716a4.935,4.935,0,0,1,3.635-.493c1.958.593,3.035,2.637,3.9,4.492a3.746,3.746,0,0,1,.508,1.961,3.161,3.161,0,0,1-.6,1.376,10.361,10.361,0,0,1-3.646,3.286,4.887,4.887,0,0,1-2.937.7c-1.929-.274-3.146-2.176-3.978-3.936a6.828,6.828,0,0,1-.823-2.779C617.157,133.229,619.472,131.57,621.124,130.716Z" transform="translate(-528.625 -115.804)"/>
  <path id="パス_91" data-name="パス 91" class="cls-8" d="M614,152.983a4.937,4.937,0,0,1,3.636-.492c1.958.593,3.035,2.637,3.9,4.491a3.749,3.749,0,0,1,.508,1.961,3.163,3.163,0,0,1-.6,1.376,10.355,10.355,0,0,1-3.647,3.286,4.881,4.881,0,0,1-2.937.7c-1.928-.273-3.145-2.176-3.978-3.936a6.829,6.829,0,0,1-.823-2.778C610.03,155.5,612.345,153.837,614,152.983Z" transform="translate(-527.498 -119.326)"/>
  <path id="パス_92" data-name="パス 92" class="cls-8" d="M592.325,118.163a5.509,5.509,0,0,1,4.505.122A5.781,5.781,0,1,1,589.109,126,5.794,5.794,0,0,1,592.325,118.163Z" transform="translate(-524.095 -113.855)"/>
  <path id="パス_93" data-name="パス 93" class="cls-8" d="M635.22,154.822a5.509,5.509,0,0,1,4.505.122A5.781,5.781,0,1,1,632,162.658,5.794,5.794,0,0,1,635.22,154.822Z" transform="translate(-530.88 -119.654)"/>
  <path id="パス_94" data-name="パス 94" class="cls-8" d="M541.2,137.614a5.509,5.509,0,0,1,4.505.122,5.781,5.781,0,1,1-7.722,7.714A5.794,5.794,0,0,1,541.2,137.614Z" transform="translate(-516.007 -116.932)"/>
  <path id="パス_95" data-name="パス 95" class="cls-8" d="M589.3,142.547a5.513,5.513,0,0,1,4.505.123,5.781,5.781,0,1,1-7.721,7.714A5.8,5.8,0,0,1,589.3,142.547Z" transform="translate(-523.616 -117.712)"/>
  <g id="グループ_60" data-name="グループ 60" transform="translate(44.031 14.28)">
    <g id="グループ_58" data-name="グループ 58">
      <path id="パス_96" data-name="パス 96" class="cls-5" d="M576.651,130.735a2.873,2.873,0,0,1-.083.307c-.3.774-.588,1.551-.9,2.318a1.479,1.479,0,0,1-.349.5.548.548,0,0,1-.738.051.539.539,0,0,1-.2-.682q.548-1.388,1.121-2.764a.548.548,0,0,1,.683-.35C576.518,130.189,576.6,130.453,576.651,130.735Z" transform="translate(-565.878 -130.089)"/>
      <path id="パス_97" data-name="パス 97" class="cls-5" d="M569.732,131.82c.005-.36,0-.68.016-1a.632.632,0,0,1,.584-.681.6.6,0,0,1,.624.633c.031.433.013.868.021,1.3.007.332.015.663.036.994a.667.667,0,0,1-.515.778.624.624,0,0,1-.689-.616C569.754,132.751,569.754,132.265,569.732,131.82Z" transform="translate(-565.15 -130.097)"/>
      <path id="パス_98" data-name="パス 98" class="cls-5" d="M565.005,131.256c.086.069.3.167.4.334q.506.9.937,1.837a.6.6,0,0,1-.263.852.632.632,0,0,1-.823-.359c-.3-.577-.6-1.154-.886-1.737A.623.623,0,0,1,565.005,131.256Z" transform="translate(-564.289 -130.273)"/>
    </g>
    <g id="グループ_59" data-name="グループ 59" transform="translate(0.357 4.559)">
      <circle id="楕円形_44" data-name="楕円形 44" class="cls-4" cx="4.286" cy="4.286" r="4.286" transform="translate(0.862 0.559)"/>
      <path id="パス_99" data-name="パス 99" class="cls-5" d="M567.5,144.92a4.59,4.59,0,0,1-2.781-4.213,4.921,4.921,0,0,1,2.144-4.388,5.6,5.6,0,0,1,4.846-.471,4.625,4.625,0,0,1,2.834,6.5A5.273,5.273,0,0,1,567.5,144.92Zm.469-1.048c1.342.7,3.294.84,4.349-.215a4.956,4.956,0,0,0,1.487-2.934,3.2,3.2,0,0,0-1-2.935,4.6,4.6,0,0,0-5.452-.39,3.846,3.846,0,0,0-.161,5.941A3.72,3.72,0,0,0,567.966,143.872Z" transform="translate(-564.713 -135.505)"/>
      <path id="パス_100" data-name="パス 100" class="cls-5" d="M571.286,139.32a1.629,1.629,0,0,1,.886,2.17,2.339,2.339,0,0,1-2.334,1.23,2.057,2.057,0,0,1-1.087-2.573A1.992,1.992,0,0,1,571.286,139.32Z" transform="translate(-565.331 -136.084)"/>
    </g>
  </g>
  <g id="グループ_64" data-name="グループ 64" transform="translate(78.392 18.373)">
    <g id="グループ_61" data-name="グループ 61" transform="translate(2.637)">
      <path id="パス_101" data-name="パス 101" class="cls-5" d="M620.206,138.217a3.148,3.148,0,0,1-.174.266c-.524.642-1.044,1.289-1.582,1.919a1.49,1.49,0,0,1-.487.362.547.547,0,0,1-.716-.184.537.537,0,0,1,.027-.709q.953-1.147,1.929-2.275a.547.547,0,0,1,.758-.119A.646.646,0,0,1,620.206,138.217Z" transform="translate(-609.646 -135.334)"/>
      <path id="パス_102" data-name="パス 102" class="cls-5" d="M613.327,137.021c.117-.34.214-.645.327-.943a.635.635,0,0,1,.769-.465.6.6,0,0,1,.395.8c-.106.42-.26.827-.387,1.243-.1.317-.193.635-.277.955a.667.667,0,0,1-.732.578.625.625,0,0,1-.461-.8C613.057,137.913,613.209,137.45,613.327,137.021Z" transform="translate(-608.984 -135.052)"/>
      <path id="パス_103" data-name="パス 103" class="cls-5" d="M609.143,135.008a1.3,1.3,0,0,1,.274.442c.133.673.239,1.354.315,2.038a.6.6,0,0,1-.517.726.632.632,0,0,1-.669-.6c-.1-.641-.207-1.284-.3-1.927A.622.622,0,0,1,609.143,135.008Z" transform="translate(-608.24 -134.951)"/>
    </g>
    <g id="グループ_63" data-name="グループ 63" transform="translate(0 4.742)">
      <circle id="楕円形_45" data-name="楕円形 45" class="cls-4" cx="4.286" cy="4.286" r="4.286" transform="translate(0.882 0.819)"/>
      <g id="グループ_62" data-name="グループ 62">
        <path id="パス_104" data-name="パス 104" class="cls-5" d="M609.118,140.8a4.961,4.961,0,0,1,1.779-.207,5.083,5.083,0,0,1,4.4,5.872,5.413,5.413,0,0,1-3.109,3.792,4.886,4.886,0,0,1-4.364.067,5.368,5.368,0,0,1-2.38-2.99,4.833,4.833,0,0,1,.3-4.217A6.631,6.631,0,0,1,609.118,140.8Zm.322,1.088a4.281,4.281,0,0,0-.873.3,4.423,4.423,0,0,0-1.928,1.8,3.034,3.034,0,0,0-.274,2.3,3.986,3.986,0,0,0,2.771,3.3,3.251,3.251,0,0,0,.477.072,4.728,4.728,0,0,0,2.922-.95,4.072,4.072,0,0,0,1.593-2.307,3.776,3.776,0,0,0-4.688-4.516Z" transform="translate(-605.108 -140.584)"/>
        <path id="パス_105" data-name="パス 105" class="cls-5" d="M611.384,148.186c-1.951.655-2.924-2.215-1.429-3.288a1.9,1.9,0,0,1,2.814,1.011A1.989,1.989,0,0,1,611.384,148.186Z" transform="translate(-605.759 -141.217)"/>
      </g>
    </g>
  </g>
</svg>
