<svg xmlns="http://www.w3.org/2000/svg" width="283.599" height="286.852" viewBox="0 0 283.599 286.852">
  <defs>
    <style>
      .cls-1 {
        fill: #f1b500;
        stroke: #f1b500;
        stroke-width: 3.443px;
      }

      .cls-1, .cls-6, .cls-7, .cls-9 {
        stroke-linecap: round;
        stroke-linejoin: round;
      }

      .cls-2 {
        fill: #ffec00;
      }

      .cls-3 {
        fill: #0092e5;
      }

      .cls-4 {
        fill: #fff;
      }

      .cls-5 {
        fill: #1a1a1a;
      }

      .cls-6, .cls-7, .cls-9 {
        fill: none;
        stroke: #1a1a1a;
      }

      .cls-6 {
        stroke-width: 1.535px;
      }

      .cls-7 {
        stroke-width: 1.181px;
      }

      .cls-8 {
        fill: #e75534;
      }

      .cls-9 {
        stroke-width: 1.595px;
      }

      .cls-10 {
        fill: #ffc400;
      }

      .cls-11 {
        fill: #fffde9;
      }
    </style>
  </defs>
  <g id="kv-illust01" transform="translate(-287 -18.783)">
    <path id="パス_20" data-name="パス 20" class="cls-1" d="M503.04,136.482l4.68,2.56-4.68,2.56-2.56,4.68-2.56-4.68-4.68-2.56,4.68-2.56,2.56-4.68Z" transform="translate(-63.959 14.726)"/>
    <path id="パス_21" data-name="パス 21" class="cls-1" d="M464.707,162.667l4.68,2.56-4.68,2.56-2.56,4.68-2.56-4.68-4.68-2.56,4.68-2.56,2.56-4.68Z" transform="translate(-32.865 52.752)"/>
    <g id="グループ_52" data-name="グループ 52" transform="translate(351 229.647)">
      <path id="パス_61" data-name="パス 61" class="cls-2" d="M447.254,353.422a19.415,19.415,0,0,1-7.841,9.844,19.852,19.852,0,0,0-3.185,2.161,4,4,0,0,0-1.394,3.431c.254,1.455,1.6,3,.72,4.18a2.783,2.783,0,0,1-1.262.8c-1.292.516-2.979.948-3.9-.094a3.448,3.448,0,0,1-.639-1.916l-.821-6.684a4.439,4.439,0,0,1,.324-2.963,5.111,5.111,0,0,1,2.37-1.575,16.543,16.543,0,0,0,8.842-10.027" transform="translate(-428.833 -304.288)"/>
      <path id="パス_62" data-name="パス 62" class="cls-2" d="M451.713,355.038a19.4,19.4,0,0,1-2.85,12.258,19.9,19.9,0,0,0-1.948,3.321,4,4,0,0,0,.215,3.7c.855,1.2,2.736,2.017,2.447,3.465a2.79,2.79,0,0,1-.8,1.261c-.945,1.022-2.282,2.137-3.563,1.592a3.451,3.451,0,0,1-1.4-1.456l-3.612-5.683a4.436,4.436,0,0,1-.981-2.814,5.114,5.114,0,0,1,1.464-2.441,16.543,16.543,0,0,0,3.676-12.853" transform="translate(-429.994 -304.787)"/>
      <path id="パス_63" data-name="パス 63" class="cls-3" d="M474.95,303.34c-.082-.165-.168-.345-.257-.533-.817-1.713-1.935-4.06-4.1-4.33a3.673,3.673,0,0,0-3.344,1.591c-.494.594-.97,1.2-1.443,1.793a37.822,37.822,0,0,1-3.388,3.906,31.657,31.657,0,0,1-6.64,4.724c-1.194.672-2.443,1.326-3.653,1.957a49.9,49.9,0,0,0-10.487,6.669c-5.016,4.472-8.044,10.059-8.526,15.732a19.778,19.778,0,0,0,8.812,17.885,22.02,22.02,0,0,0,11.951,3.91,17.372,17.372,0,0,0,8.6-2.307c10.579-5.986,16.743-22.707,16.386-34.767A39.368,39.368,0,0,0,474.95,303.34Z" transform="translate(-429.305 -298.453)"/>
      <circle id="楕円形_38" data-name="楕円形 38" class="cls-4" cx="4.347" cy="4.347" r="4.347" transform="translate(19.034 19.424)"/>
      <path id="パス_64" data-name="パス 64" class="cls-5" d="M451.229,328.665a4.655,4.655,0,0,1-1.919-4.747,4.994,4.994,0,0,1,3.012-3.932,5.687,5.687,0,0,1,4.914.505,4.693,4.693,0,0,1,1.511,7.03A5.349,5.349,0,0,1,451.229,328.665Zm.677-.948c1.194.962,3.106,1.5,4.367.659a5.029,5.029,0,0,0,2.066-2.618,3.24,3.24,0,0,0-.409-3.119,4.668,4.668,0,0,0-5.343-1.483,3.9,3.9,0,0,0-1.353,5.875A3.783,3.783,0,0,0,451.906,327.718Z" transform="translate(-431.116 -300.825)"/>
      <path id="パス_65" data-name="パス 65" class="cls-5" d="M456.051,323.556a1.652,1.652,0,0,1,.445,2.336,2.373,2.373,0,0,1-2.567.754,2.087,2.087,0,0,1-.564-2.777A2.019,2.019,0,0,1,456.051,323.556Z" transform="translate(-431.545 -301.222)"/>
      <circle id="楕円形_39" data-name="楕円形 39" class="cls-4" cx="4.347" cy="4.347" r="4.347" transform="translate(43.252 30.162)"/>
      <path id="パス_66" data-name="パス 66" class="cls-5" d="M478.5,340.757a4.656,4.656,0,0,1-1.919-4.748,4.994,4.994,0,0,1,3.013-3.931,5.685,5.685,0,0,1,4.913.505,4.691,4.691,0,0,1,1.512,7.029A5.349,5.349,0,0,1,478.5,340.757Zm.677-.948c1.2.962,3.106,1.5,4.367.659a5.029,5.029,0,0,0,2.067-2.617,3.24,3.24,0,0,0-.41-3.119,4.667,4.667,0,0,0-5.343-1.483,3.9,3.9,0,0,0-1.352,5.875A3.742,3.742,0,0,0,479.176,339.809Z" transform="translate(-434.168 -302.179)"/>
      <path id="パス_67" data-name="パス 67" class="cls-5" d="M483.322,335.648a1.653,1.653,0,0,1,.445,2.336,2.374,2.374,0,0,1-2.568.753,2.085,2.085,0,0,1-.563-2.776A2.019,2.019,0,0,1,483.322,335.648Z" transform="translate(-434.597 -302.576)"/>
      <path id="パス_68" data-name="パス 68" class="cls-6" d="M463.343,335.179a6.72,6.72,0,0,0-.9,3,3.1,3.1,0,0,0,1.858,2.739,3.95,3.95,0,0,0,3.563-.364,5.753,5.753,0,0,0,1.969-2.495" transform="translate(-432.595 -302.564)"/>
    </g>
    <g id="グループ_55" data-name="グループ 55" transform="translate(287 216.405)">
      <path id="パス_69" data-name="パス 69" class="cls-2" d="M438.8,246.441a15.454,15.454,0,0,1-3.743,9.294,15.8,15.8,0,0,0-1.939,2.375,3.18,3.18,0,0,0-.284,2.934c.525,1.052,1.905,1.921,1.5,3.026a2.206,2.206,0,0,1-.782.895c-.869.688-2.058,1.4-3,.816a2.739,2.739,0,0,1-.924-1.316l-2.146-4.913a3.534,3.534,0,0,1-.427-2.335,4.069,4.069,0,0,1,1.451-1.741,13.168,13.168,0,0,0,4.465-9.661" transform="translate(-426.979 -216.467)"/>
      <path id="パス_70" data-name="パス 70" class="cls-2" d="M448.122,246.972a15.457,15.457,0,0,1,1.227,9.944,15.816,15.816,0,0,0-.546,3.016,3.179,3.179,0,0,0,1.172,2.7c.97.667,2.6.758,2.778,1.921a2.2,2.2,0,0,1-.25,1.161c-.427,1.023-1.121,2.223-2.228,2.166a2.742,2.742,0,0,1-1.446-.7l-4.257-3.259a3.531,3.531,0,0,1-1.5-1.836,4.075,4.075,0,0,1,.427-2.225,13.173,13.173,0,0,0-.773-10.615" transform="translate(-429.473 -216.65)"/>
      <path id="パス_71" data-name="パス 71" class="cls-3" d="M455.171,221.347c-1.965-7.8-3.419-9.478-4.583-10.1a2.5,2.5,0,0,0-2.047-.161,4.331,4.331,0,0,0-2.084,2.371c-.093.18-.235.454-.285.526a21.831,21.831,0,0,1-2.021,2.249c-.837.837-1.694,1.654-2.55,2.473a66.365,66.365,0,0,0-6.241,6.53c-3.214,4.034-4.959,8.3-5.044,12.333-.109,5.144,2.759,9.99,6.975,11.785a11.84,11.84,0,0,0,4.678.9,17.782,17.782,0,0,0,3.986-.485,14.223,14.223,0,0,0,5.567-2.44c3.521-2.691,5.282-7.377,5.235-13.928a49.5,49.5,0,0,0-1.538-11.863Z" transform="translate(-427.507 -210.943)"/>
      <g id="グループ_53" data-name="グループ 53" transform="translate(4.699 12.393)">
        <circle id="楕円形_40" data-name="楕円形 40" class="cls-4" cx="3.228" cy="3.228" r="3.228" transform="translate(0.641 0.417)"/>
        <path id="パス_72" data-name="パス 72" class="cls-5" d="M434.864,232.858a3.457,3.457,0,0,1-2.284-3.04,3.706,3.706,0,0,1,1.411-3.4,4.22,4.22,0,0,1,3.621-.576,3.87,3.87,0,0,1,2.294,1.755,3.826,3.826,0,0,1,.134,3A3.972,3.972,0,0,1,434.864,232.858Zm.3-.81a2.946,2.946,0,0,0,3.26-.362,3.739,3.739,0,0,0,.983-2.273,2.406,2.406,0,0,0-.89-2.16,3.465,3.465,0,0,0-4.116-.044,2.9,2.9,0,0,0,.152,4.474A2.8,2.8,0,0,0,435.168,232.048Z" transform="translate(-432.563 -225.668)"/>
        <path id="パス_73" data-name="パス 73" class="cls-5" d="M437.428,228.5a1.226,1.226,0,0,1,.765,1.591,1.761,1.761,0,0,1-1.7,1.031,1.549,1.549,0,0,1-.935-1.884A1.5,1.5,0,0,1,437.428,228.5Z" transform="translate(-433.026 -226.104)"/>
      </g>
      <g id="グループ_54" data-name="グループ 54" transform="translate(24.127 15.47)">
        <circle id="楕円形_41" data-name="楕円形 41" class="cls-4" cx="3.228" cy="3.228" r="3.228" transform="translate(0.642 0.417)"/>
        <path id="パス_74" data-name="パス 74" class="cls-5" d="M457.95,236.514a3.457,3.457,0,0,1-2.285-3.039,3.71,3.71,0,0,1,1.411-3.4,4.222,4.222,0,0,1,3.622-.576,3.484,3.484,0,0,1,2.428,4.755A3.971,3.971,0,0,1,457.95,236.514Zm.3-.81a2.945,2.945,0,0,0,3.259-.361,3.73,3.73,0,0,0,.983-2.273,2.406,2.406,0,0,0-.89-2.16,3.467,3.467,0,0,0-4.117-.043,2.9,2.9,0,0,0,.152,4.473A2.756,2.756,0,0,0,458.253,235.7Z" transform="translate(-455.648 -229.325)"/>
        <path id="パス_75" data-name="パス 75" class="cls-5" d="M460.513,232.159a1.228,1.228,0,0,1,.766,1.591,1.762,1.762,0,0,1-1.7,1.031,1.548,1.548,0,0,1-.935-1.884A1.5,1.5,0,0,1,460.513,232.159Z" transform="translate(-456.111 -229.761)"/>
      </g>
      <path id="パス_76" data-name="パス 76" class="cls-7" d="M444.877,235.488a4.555,4.555,0,0,0-.215,2.218,2.263,2.263,0,0,0,1.768,1.646,3.057,3.057,0,0,0,2.561-.752,4.007,4.007,0,0,0,1.078-2.012" transform="translate(-429.769 -214.831)"/>
    </g>
    <g id="グループ_65" data-name="グループ 65" transform="translate(441.73 57.16) rotate(-19)">
      <path id="パス_77" data-name="パス 77" class="cls-8" d="M583.089,163.31c.324,5.8-2.675,11.206-5.579,16.237l-6.776,11.741c-1.527,2.647-3.082,5.366-3.588,8.379a13.925,13.925,0,0,0,3.789,11.749,16.047,16.047,0,0,0,11.537,4.706,6.034,6.034,0,0,0,4.472-1.506c1.255-1.356,1.283-3.438.947-5.254a17.418,17.418,0,0,0-1.676-4.864c-1.189-2.285-2.892-4.323-3.676-6.777a14.226,14.226,0,0,1-.573-4.4c.019-4.78,1.373-9.454,2.968-13.96,1.773-5.014,3.895-10.163,3.348-15.453" transform="translate(-520.695 -121.075)"/>
      <path id="パス_78" data-name="パス 78" class="cls-2" d="M525.018,254.47a17.045,17.045,0,0,1-4.129,10.252,17.433,17.433,0,0,0-2.138,2.619,3.506,3.506,0,0,0-.313,3.236c.579,1.161,2.1,2.12,1.655,3.338a2.437,2.437,0,0,1-.863.987c-.958.759-2.269,1.546-3.307.9a3.025,3.025,0,0,1-1.019-1.452l-2.367-5.42a3.892,3.892,0,0,1-.471-2.574,4.494,4.494,0,0,1,1.6-1.92,14.53,14.53,0,0,0,4.926-10.656" transform="translate(-511.984 -135.407)"/>
      <path id="パス_79" data-name="パス 79" class="cls-2" d="M536.669,253.039a17.048,17.048,0,0,1-1.529,10.946,17.472,17.472,0,0,0-1.443,3.058,3.51,3.51,0,0,0,.479,3.216c.842.986,2.552,1.548,2.413,2.839a2.433,2.433,0,0,1-.6,1.166c-.746.969-1.828,2.048-2.991,1.673a3.021,3.021,0,0,1-1.34-1.163l-3.607-4.687a3.9,3.9,0,0,1-1.079-2.384,4.5,4.5,0,0,1,1.088-2.25,14.527,14.527,0,0,0,2.2-11.531" transform="translate(-514.358 -135.289)"/>
      <path id="パス_80" data-name="パス 80" class="cls-2" d="M547.729,212.41a17.047,17.047,0,0,1,10.848-2.113,17.483,17.483,0,0,0,3.361.369,3.509,3.509,0,0,0,2.886-1.5c.659-1.117.635-2.916,1.9-3.2a2.436,2.436,0,0,1,1.3.186c1.158.391,2.532,1.063,2.554,2.285a3.022,3.022,0,0,1-.663,1.645l-3.259,4.934a3.9,3.9,0,0,1-1.9,1.8,4.492,4.492,0,0,1-2.481-.3,14.526,14.526,0,0,0-11.621,1.665" transform="translate(-517.646 -127.827)"/>
      <path id="パス_81" data-name="パス 81" class="cls-3" d="M545.683,231.1a149.555,149.555,0,0,0-5.253-32.034c-.409-1.472-.849-2.962-1.308-4.433-.109-.348-.208-.723-.311-1.108A13.354,13.354,0,0,0,537.5,190a1.812,1.812,0,0,0-2.893-.267,4.535,4.535,0,0,0-.875,2.586c-.024.2-.043.384-.075.523-.174.752-.39,1.523-.643,2.292a32.5,32.5,0,0,1-1.831,4.393,67.434,67.434,0,0,1-5.283,8.532c-.731,1.039-1.476,2.068-2.22,3.1L522.5,212.79c-5.458,7.6-10.391,15.913-9.547,25.163a14.038,14.038,0,0,0,2.475,7.162c2.232,3.026,6.16,4.93,11.06,5.36.714.063,1.411.093,2.09.093,8.093,0,13.7-4.274,15.775-8.819C545.923,238.322,545.862,234.455,545.683,231.1Z" transform="translate(-512.123 -125.165)"/>
      <g id="グループ_56" data-name="グループ 56" transform="translate(4.194 88.849)">
        <circle id="楕円形_42" data-name="楕円形 42" class="cls-4" cx="4.12" cy="4.12" r="4.12" transform="translate(0.819 0.533)"/>
        <path id="パス_82" data-name="パス 82" class="cls-5" d="M519.9,227.875a4.414,4.414,0,0,1-2.915-3.88,4.734,4.734,0,0,1,1.8-4.336,5.389,5.389,0,0,1,4.623-.735,4.447,4.447,0,0,1,3.1,6.069A5.07,5.07,0,0,1,519.9,227.875Zm.389-1.033c1.329.589,3.21.614,4.16-.462a4.768,4.768,0,0,0,1.255-2.9,3.071,3.071,0,0,0-1.136-2.756,4.423,4.423,0,0,0-5.254-.056,3.7,3.7,0,0,0,.194,5.709A3.557,3.557,0,0,0,520.293,226.841Z" transform="translate(-516.967 -218.699)"/>
        <path id="パス_83" data-name="パス 83" class="cls-5" d="M523.177,222.317a1.565,1.565,0,0,1,.976,2.03,2.246,2.246,0,0,1-2.167,1.316,1.976,1.976,0,0,1-1.193-2.4A1.914,1.914,0,0,1,523.177,222.317Z" transform="translate(-517.559 -219.255)"/>
      </g>
      <g id="グループ_57" data-name="グループ 57" transform="translate(28.99 92.777)">
        <circle id="楕円形_43" data-name="楕円形 43" class="cls-4" cx="4.12" cy="4.12" r="4.12" transform="translate(0.818 0.533)"/>
        <path id="パス_84" data-name="パス 84" class="cls-5" d="M549.368,232.541a4.412,4.412,0,0,1-2.915-3.879,4.733,4.733,0,0,1,1.8-4.336,5.386,5.386,0,0,1,4.622-.735,4.934,4.934,0,0,1,2.928,2.239,4.882,4.882,0,0,1,.171,3.828A5.068,5.068,0,0,1,549.368,232.541Zm.388-1.033c1.329.589,3.211.614,4.161-.462a4.766,4.766,0,0,0,1.254-2.9,3.069,3.069,0,0,0-1.135-2.756,4.422,4.422,0,0,0-5.254-.056,3.7,3.7,0,0,0,.194,5.709A3.571,3.571,0,0,0,549.756,231.508Z" transform="translate(-546.431 -223.366)"/>
        <path id="パス_85" data-name="パス 85" class="cls-5" d="M552.64,226.984a1.566,1.566,0,0,1,.977,2.03,2.247,2.247,0,0,1-2.168,1.316,1.976,1.976,0,0,1-1.193-2.4A1.913,1.913,0,0,1,552.64,226.984Z" transform="translate(-547.023 -223.922)"/>
      </g>
      <path id="パス_86" data-name="パス 86" class="cls-9" d="M533.481,232.455a7.408,7.408,0,0,0,.1,3.2,3.06,3.06,0,0,0,2.5,2.095,3.569,3.569,0,0,0,3.094-1.453,6.064,6.064,0,0,0,1.018-3.036" transform="translate(-515.37 -132.028)"/>
      <path id="パス_87" data-name="パス 87" class="cls-10" d="M632.4,157.564a46.993,46.993,0,0,0-8.431-22.6,84.27,84.27,0,0,0-7.234-8.635c-1.338-1.439-3.525-2.365-5.229-3.3q-2.931-1.618-5.979-3.015a72.446,72.446,0,0,0-29.384-6.883,54.377,54.377,0,0,0-42.234,19.148,31.67,31.67,0,0,0-4.432,6.485c-1.788,3.589-.87,8.917,1.59,12,2.409,3.02,6.216,4.545,9.943,5.563,16.886,4.614,35.007,1.36,52.188,4.709,11.332,2.208,22.654,7.288,33.971,5.007a7.477,7.477,0,0,0,3.362-1.365C632.5,163.044,632.632,160.107,632.4,157.564Z" transform="translate(-514.607 -113.125)"/>
      <path id="パス_88" data-name="パス 88" class="cls-11" d="M563.357,120.86a4.933,4.933,0,0,1,3.634-.492c1.958.593,3.034,2.636,3.9,4.49a3.747,3.747,0,0,1,.508,1.961,3.164,3.164,0,0,1-.6,1.376,10.358,10.358,0,0,1-3.645,3.285,4.881,4.881,0,0,1-2.936.7c-1.928-.273-3.145-2.175-3.977-3.935a6.825,6.825,0,0,1-.823-2.777C559.391,123.373,561.705,121.714,563.357,120.86Z" transform="translate(-519.498 -114.246)"/>
      <path id="パス_89" data-name="パス 89" class="cls-11" d="M563.357,147.924a4.934,4.934,0,0,1,3.634-.493c1.958.593,3.034,2.637,3.9,4.491a3.745,3.745,0,0,1,.508,1.961,3.161,3.161,0,0,1-.6,1.375,10.36,10.36,0,0,1-3.645,3.286,4.886,4.886,0,0,1-2.936.7c-1.928-.274-3.145-2.176-3.977-3.935a6.825,6.825,0,0,1-.823-2.778C559.391,150.437,561.705,148.778,563.357,147.924Z" transform="translate(-519.498 -118.534)"/>
      <path id="パス_90" data-name="パス 90" class="cls-11" d="M621.123,130.716a4.934,4.934,0,0,1,3.634-.493c1.958.593,3.034,2.637,3.9,4.491a3.745,3.745,0,0,1,.507,1.961,3.159,3.159,0,0,1-.6,1.375,10.359,10.359,0,0,1-3.645,3.286,4.886,4.886,0,0,1-2.936.7c-1.928-.274-3.145-2.175-3.977-3.935a6.826,6.826,0,0,1-.823-2.778C617.157,133.229,619.471,131.57,621.123,130.716Z" transform="translate(-528.649 -115.808)"/>
      <path id="パス_91" data-name="パス 91" class="cls-11" d="M614,152.983a4.936,4.936,0,0,1,3.635-.492c1.958.593,3.034,2.636,3.9,4.49a3.749,3.749,0,0,1,.508,1.961,3.162,3.162,0,0,1-.6,1.376,10.352,10.352,0,0,1-3.646,3.285,4.879,4.879,0,0,1-2.936.7c-1.927-.273-3.144-2.175-3.976-3.935a6.826,6.826,0,0,1-.823-2.777C610.03,155.5,612.344,153.837,614,152.983Z" transform="translate(-527.52 -119.335)"/>
      <path id="パス_92" data-name="パス 92" class="cls-11" d="M592.324,118.162a5.508,5.508,0,0,1,4.5.122A5.779,5.779,0,1,1,589.109,126,5.792,5.792,0,0,1,592.324,118.162Z" transform="translate(-524.112 -113.856)"/>
      <path id="パス_93" data-name="パス 93" class="cls-11" d="M635.219,154.821a5.508,5.508,0,0,1,4.5.122,5.78,5.78,0,1,1-7.72,7.712A5.793,5.793,0,0,1,635.219,154.821Z" transform="translate(-530.907 -119.663)"/>
      <path id="パス_94" data-name="パス 94" class="cls-11" d="M541.2,137.613a5.508,5.508,0,0,1,4.5.122,5.78,5.78,0,1,1-7.72,7.712A5.792,5.792,0,0,1,541.2,137.613Z" transform="translate(-516.013 -116.937)"/>
      <path id="パス_95" data-name="パス 95" class="cls-11" d="M589.3,142.547a5.511,5.511,0,0,1,4.5.123,5.779,5.779,0,1,1-7.719,7.712A5.793,5.793,0,0,1,589.3,142.547Z" transform="translate(-523.632 -117.719)"/>
      <g id="グループ_60" data-name="グループ 60" transform="translate(44.019 14.277)">
        <g id="グループ_58" data-name="グループ 58">
          <path id="パス_96" data-name="パス 96" class="cls-5" d="M576.65,130.734a2.873,2.873,0,0,1-.082.307c-.3.774-.588,1.551-.9,2.318a1.479,1.479,0,0,1-.349.5.548.548,0,0,1-.738.05.539.539,0,0,1-.2-.682q.548-1.387,1.121-2.764a.548.548,0,0,1,.683-.35C576.517,130.189,576.6,130.453,576.65,130.734Z" transform="translate(-565.88 -130.089)"/>
          <path id="パス_97" data-name="パス 97" class="cls-5" d="M569.732,131.82c.005-.36,0-.68.016-1a.632.632,0,0,1,.584-.681.6.6,0,0,1,.624.633c.031.433.013.868.021,1.3.007.332.015.663.036.994a.667.667,0,0,1-.515.778.624.624,0,0,1-.688-.616C569.754,132.75,569.754,132.264,569.732,131.82Z" transform="translate(-565.151 -130.097)"/>
          <path id="パス_98" data-name="パス 98" class="cls-5" d="M565.005,131.256c.086.069.3.167.4.334q.506.9.937,1.836a.6.6,0,0,1-.263.852.632.632,0,0,1-.823-.359c-.3-.576-.6-1.154-.885-1.736A.623.623,0,0,1,565.005,131.256Z" transform="translate(-564.289 -130.274)"/>
        </g>
        <g id="グループ_59" data-name="グループ 59" transform="translate(0.357 4.558)">
          <circle id="楕円形_44" data-name="楕円形 44" class="cls-4" cx="4.285" cy="4.285" r="4.285" transform="translate(0.862 0.558)"/>
          <path id="パス_99" data-name="パス 99" class="cls-5" d="M567.5,144.917a4.589,4.589,0,0,1-2.781-4.212,4.919,4.919,0,0,1,2.144-4.386,5.6,5.6,0,0,1,4.845-.47,4.624,4.624,0,0,1,2.833,6.5A5.272,5.272,0,0,1,567.5,144.917Zm.469-1.048c1.341.7,3.293.84,4.348-.215a4.954,4.954,0,0,0,1.486-2.933,3.194,3.194,0,0,0-1-2.934,4.6,4.6,0,0,0-5.451-.39,3.845,3.845,0,0,0-.161,5.939A3.721,3.721,0,0,0,567.965,143.87Z" transform="translate(-564.713 -135.505)"/>
          <path id="パス_100" data-name="パス 100" class="cls-5" d="M571.285,139.32a1.628,1.628,0,0,1,.885,2.17,2.338,2.338,0,0,1-2.334,1.23,2.057,2.057,0,0,1-1.086-2.573A1.991,1.991,0,0,1,571.285,139.32Z" transform="translate(-565.332 -136.085)"/>
        </g>
      </g>
      <g id="グループ_64" data-name="グループ 64" transform="translate(78.372 18.368)">
        <g id="グループ_61" data-name="グループ 61" transform="translate(2.636)">
          <path id="パス_101" data-name="パス 101" class="cls-5" d="M620.205,138.217a3.162,3.162,0,0,1-.174.266c-.523.642-1.044,1.288-1.581,1.919a1.49,1.49,0,0,1-.487.362.547.547,0,0,1-.716-.183.537.537,0,0,1,.027-.709q.953-1.146,1.929-2.275a.547.547,0,0,1,.758-.119A.646.646,0,0,1,620.205,138.217Z" transform="translate(-609.648 -135.335)"/>
          <path id="パス_102" data-name="パス 102" class="cls-5" d="M613.327,137.021c.117-.34.214-.645.327-.943a.634.634,0,0,1,.768-.465.6.6,0,0,1,.395.8c-.106.42-.26.827-.387,1.242-.1.317-.193.635-.277.955a.667.667,0,0,1-.732.578.625.625,0,0,1-.461-.8C613.057,137.912,613.209,137.45,613.327,137.021Z" transform="translate(-608.985 -135.052)"/>
          <path id="パス_103" data-name="パス 103" class="cls-5" d="M609.143,135.008a1.294,1.294,0,0,1,.274.442c.133.673.239,1.354.315,2.037a.6.6,0,0,1-.517.726.632.632,0,0,1-.669-.6c-.1-.641-.207-1.283-.3-1.926A.622.622,0,0,1,609.143,135.008Z" transform="translate(-608.24 -134.951)"/>
        </g>
        <g id="グループ_63" data-name="グループ 63" transform="translate(0 4.74)">
          <circle id="楕円形_45" data-name="楕円形 45" class="cls-4" cx="4.285" cy="4.285" r="4.285" transform="translate(0.882 0.819)"/>
          <g id="グループ_62" data-name="グループ 62">
            <path id="パス_104" data-name="パス 104" class="cls-5" d="M609.117,140.8a4.961,4.961,0,0,1,1.778-.207,5.081,5.081,0,0,1,4.4,5.87,5.411,5.411,0,0,1-3.108,3.791,4.885,4.885,0,0,1-4.363.066,5.367,5.367,0,0,1-2.379-2.989,4.832,4.832,0,0,1,.3-4.216A6.629,6.629,0,0,1,609.117,140.8Zm.322,1.088a4.277,4.277,0,0,0-.873.3,4.422,4.422,0,0,0-1.927,1.8,3.033,3.033,0,0,0-.274,2.3,3.985,3.985,0,0,0,2.771,3.3,3.251,3.251,0,0,0,.477.072,4.727,4.727,0,0,0,2.921-.949,4.071,4.071,0,0,0,1.592-2.306,3.775,3.775,0,0,0-4.687-4.515Z" transform="translate(-605.108 -140.584)"/>
            <path id="パス_105" data-name="パス 105" class="cls-5" d="M611.383,148.185c-1.951.655-2.924-2.214-1.428-3.287a1.9,1.9,0,0,1,2.813,1.011A1.988,1.988,0,0,1,611.383,148.185Z" transform="translate(-605.76 -141.218)"/>
          </g>
        </g>
      </g>
    </g>
  </g>
</svg>
